<?xml version="1.0" standalone="no"?>
<!DOCTYPE svg PUBLIC "-//W3C//DTD SVG 20010904//EN"
 "http://www.w3.org/TR/2001/REC-SVG-20010904/DTD/svg10.dtd">
<svg version="1.0" xmlns="http://www.w3.org/2000/svg"
 width="121.000000pt" height="121.000000pt" viewBox="0 0 121.000000 121.000000"
 preserveAspectRatio="xMidYMid meet">
<metadata>
Created by potrace 1.14, written by Peter Selinger 2001-2017
</metadata>
<g transform="translate(0.000000,121.000000) scale(0.100000,-0.100000)"
fill="#000000" stroke="none">
<path d="M534 931 c-71 -18 -134 -81 -134 -134 0 -16 29 -27 77 -27 26 0 36 6
48 30 27 51 107 53 126 3 20 -53 10 -67 -56 -75 -84 -10 -139 -34 -174 -73
-51 -59 -50 -164 3 -214 51 -48 157 -46 223 5 l32 24 21 -30 c12 -17 28 -30
36 -30 8 0 34 18 57 39 l42 39 -20 22 c-18 19 -21 41 -25 175 -6 170 -12 190
-79 228 -35 21 -129 30 -177 18z m126 -306 c0 -72 -38 -125 -89 -125 -51 0
-71 88 -28 127 27 25 43 31 85 32 30 1 32 -1 32 -34z"/>
<path d="M1162 282 c-3 -100 -50 -173 -137 -213 -37 -17 -72 -19 -426 -19
l-385 0 -58 35 c-32 19 -53 29 -47 22 6 -8 34 -27 63 -43 l53 -29 380 0 c344
0 384 2 427 18 91 35 143 126 135 237 l-3 55 -2 -63z"/>
</g>
</svg>
